<?xml version="1.0" encoding="UTF-8" standalone="no"?>
<!-- Created with Inkscape (http://www.inkscape.org/) -->

<svg
   xmlns:dc="http://purl.org/dc/elements/1.1/"
   xmlns:cc="http://creativecommons.org/ns#"
   xmlns:rdf="http://www.w3.org/1999/02/22-rdf-syntax-ns#"
   xmlns:svg="http://www.w3.org/2000/svg"
   xmlns="http://www.w3.org/2000/svg"
   xmlns:sodipodi="http://sodipodi.sourceforge.net/DTD/sodipodi-0.dtd"
   xmlns:inkscape="http://www.inkscape.org/namespaces/inkscape"
   height="380"
   id="svg951"
   inkscape:version="0.48.2 r9819"
   sodipodi:docname="download_book.svg"
   sodipodi:version="0.32"
   width="240"
   inkscape:output_extension="org.inkscape.output.svg.inkscape"
   version="1.0">
  <metadata
     id="metadata3">
    <rdf:RDF>
      <cc:Work
         rdf:about="">
        <dc:title />
        <dc:description />
        <dc:subject>
          <rdf:Bag>
            <rdf:li>hash</rdf:li>
            <rdf:li />
            <rdf:li>education</rdf:li>
            <rdf:li>book</rdf:li>
          </rdf:Bag>
        </dc:subject>
        <dc:publisher>
          <cc:Agent
             rdf:about="http://www.openclipart.org">
            <dc:title>Nathan Eady</dc:title>
          </cc:Agent>
        </dc:publisher>
        <dc:creator>
          <cc:Agent>
            <dc:title>Nathan Eady</dc:title>
          </cc:Agent>
        </dc:creator>
        <dc:rights>
          <cc:Agent>
            <dc:title>Nathan Eady</dc:title>
          </cc:Agent>
        </dc:rights>
        <dc:date />
        <dc:format>image/svg+xml</dc:format>
        <dc:type
           rdf:resource="http://purl.org/dc/dcmitype/StillImage" />
        <cc:license
           rdf:resource="http://web.resource.org/cc/PublicDomain" />
        <dc:language>en</dc:language>
      </cc:Work>
      <cc:License
         rdf:about="http://web.resource.org/cc/PublicDomain">
        <cc:permits
           rdf:resource="http://web.resource.org/cc/Reproduction" />
        <cc:permits
           rdf:resource="http://web.resource.org/cc/Distribution" />
        <cc:permits
           rdf:resource="http://web.resource.org/cc/DerivativeWorks" />
      </cc:License>
    </rdf:RDF>
  </metadata>
  <defs
     id="defs953">
    <filter
       id="filter3277"
       inkscape:label="Inner Shadow"
       inkscape:menu="Shadows and Glows"
       inkscape:menu-tooltip="Adds a colorizable drop shadow inside"
       color-interpolation-filters="sRGB">
      <feGaussianBlur
         id="feGaussianBlur3279"
         stdDeviation="4"
         result="result8" />
      <feOffset
         id="feOffset3281"
         dx="4"
         dy="4"
         result="result11" />
      <feComposite
         id="feComposite3283"
         in2="result11"
         result="result6"
         in="SourceGraphic"
         operator="in" />
      <feFlood
         id="feFlood3285"
         result="result10"
         in="result6"
         flood-opacity="1"
         flood-color="rgb(0,0,0)" />
      <feBlend
         id="feBlend3287"
         in2="result10"
         mode="normal"
         in="result6"
         result="result12" />
      <feComposite
         id="feComposite3289"
         in2="SourceGraphic"
         result="result2"
         operator="in" />
    </filter>
    <filter
       id="filter3747"
       inkscape:label="Darken edges"
       inkscape:menu="Shadows and Glows"
       inkscape:menu-tooltip="Darken the edges with an inner blur"
       color-interpolation-filters="sRGB">
      <feGaussianBlur
         id="feGaussianBlur3749"
         result="result6"
         stdDeviation="1.5" />
      <feComposite
         id="feComposite3751"
         in2="result6"
         operator="atop"
         in="SourceGraphic"
         result="result8" />
      <feComposite
         id="feComposite3753"
         in2="SourceAlpha"
         in="result8"
         operator="atop"
         result="result9" />
    </filter>
    <filter
       id="filter3755"
       inkscape:label="Darken edges"
       inkscape:menu="Shadows and Glows"
       inkscape:menu-tooltip="Darken the edges with an inner blur"
       color-interpolation-filters="sRGB">
      <feGaussianBlur
         id="feGaussianBlur3757"
         result="result6"
         stdDeviation="1.5" />
      <feComposite
         id="feComposite3759"
         in2="result6"
         operator="atop"
         in="SourceGraphic"
         result="result8" />
      <feComposite
         id="feComposite3761"
         in2="SourceAlpha"
         in="result8"
         operator="atop"
         result="result9" />
    </filter>
    <filter
       id="filter3763"
       inkscape:label="Darken edges"
       inkscape:menu="Shadows and Glows"
       inkscape:menu-tooltip="Darken the edges with an inner blur"
       color-interpolation-filters="sRGB">
      <feGaussianBlur
         id="feGaussianBlur3765"
         result="result6"
         stdDeviation="1.5" />
      <feComposite
         id="feComposite3767"
         in2="result6"
         operator="atop"
         in="SourceGraphic"
         result="result8" />
      <feComposite
         id="feComposite3769"
         in2="SourceAlpha"
         in="result8"
         operator="atop"
         result="result9" />
    </filter>
    <filter
       id="filter3771"
       inkscape:label="Darken edges"
       inkscape:menu="Shadows and Glows"
       inkscape:menu-tooltip="Darken the edges with an inner blur"
       color-interpolation-filters="sRGB">
      <feGaussianBlur
         id="feGaussianBlur3773"
         result="result6"
         stdDeviation="1.5" />
      <feComposite
         id="feComposite3775"
         in2="result6"
         operator="atop"
         in="SourceGraphic"
         result="result8" />
      <feComposite
         id="feComposite3777"
         in2="SourceAlpha"
         in="result8"
         operator="atop"
         result="result9" />
    </filter>
    <filter
       id="filter3779"
       inkscape:label="Darken edges"
       inkscape:menu="Shadows and Glows"
       inkscape:menu-tooltip="Darken the edges with an inner blur"
       color-interpolation-filters="sRGB">
      <feGaussianBlur
         id="feGaussianBlur3781"
         result="result6"
         stdDeviation="1.5" />
      <feComposite
         id="feComposite3783"
         in2="result6"
         operator="atop"
         in="SourceGraphic"
         result="result8" />
      <feComposite
         id="feComposite3785"
         in2="SourceAlpha"
         in="result8"
         operator="atop"
         result="result9" />
    </filter>
    <filter
       id="filter3787"
       inkscape:label="Darken edges"
       inkscape:menu="Shadows and Glows"
       inkscape:menu-tooltip="Darken the edges with an inner blur"
       color-interpolation-filters="sRGB">
      <feGaussianBlur
         id="feGaussianBlur3789"
         result="result6"
         stdDeviation="1.5" />
      <feComposite
         id="feComposite3791"
         in2="result6"
         operator="atop"
         in="SourceGraphic"
         result="result8" />
      <feComposite
         id="feComposite3793"
         in2="SourceAlpha"
         in="result8"
         operator="atop"
         result="result9" />
    </filter>
    <filter
       id="filter3795"
       inkscape:label="Darken edges"
       inkscape:menu="Shadows and Glows"
       inkscape:menu-tooltip="Darken the edges with an inner blur"
       color-interpolation-filters="sRGB">
      <feGaussianBlur
         id="feGaussianBlur3797"
         result="result6"
         stdDeviation="1.5" />
      <feComposite
         id="feComposite3799"
         in2="result6"
         operator="atop"
         in="SourceGraphic"
         result="result8" />
      <feComposite
         id="feComposite3801"
         in2="SourceAlpha"
         in="result8"
         operator="atop"
         result="result9" />
    </filter>
    <filter
       id="filter3803"
       inkscape:label="Darken edges"
       inkscape:menu="Shadows and Glows"
       inkscape:menu-tooltip="Darken the edges with an inner blur"
       color-interpolation-filters="sRGB">
      <feGaussianBlur
         id="feGaussianBlur3805"
         result="result6"
         stdDeviation="1.5" />
      <feComposite
         id="feComposite3807"
         in2="result6"
         operator="atop"
         in="SourceGraphic"
         result="result8" />
      <feComposite
         id="feComposite3809"
         in2="SourceAlpha"
         in="result8"
         operator="atop"
         result="result9" />
    </filter>
    <filter
       id="filter3811"
       inkscape:label="Darken edges"
       inkscape:menu="Shadows and Glows"
       inkscape:menu-tooltip="Darken the edges with an inner blur"
       color-interpolation-filters="sRGB">
      <feGaussianBlur
         id="feGaussianBlur3813"
         result="result6"
         stdDeviation="1.5" />
      <feComposite
         id="feComposite3815"
         in2="result6"
         operator="atop"
         in="SourceGraphic"
         result="result8" />
      <feComposite
         id="feComposite3817"
         in2="SourceAlpha"
         in="result8"
         operator="atop"
         result="result9" />
    </filter>
    <filter
       id="filter3819"
       inkscape:label="Darken edges"
       inkscape:menu="Shadows and Glows"
       inkscape:menu-tooltip="Darken the edges with an inner blur"
       color-interpolation-filters="sRGB">
      <feGaussianBlur
         id="feGaussianBlur3821"
         result="result6"
         stdDeviation="1.5" />
      <feComposite
         id="feComposite3823"
         in2="result6"
         operator="atop"
         in="SourceGraphic"
         result="result8" />
      <feComposite
         id="feComposite3825"
         in2="SourceAlpha"
         in="result8"
         operator="atop"
         result="result9" />
    </filter>
    <filter
       id="filter3827"
       inkscape:label="Darken edges"
       inkscape:menu="Shadows and Glows"
       inkscape:menu-tooltip="Darken the edges with an inner blur"
       color-interpolation-filters="sRGB">
      <feGaussianBlur
         id="feGaussianBlur3829"
         result="result6"
         stdDeviation="1.5" />
      <feComposite
         id="feComposite3831"
         in2="result6"
         operator="atop"
         in="SourceGraphic"
         result="result8" />
      <feComposite
         id="feComposite3833"
         in2="SourceAlpha"
         in="result8"
         operator="atop"
         result="result9" />
    </filter>
    <filter
       id="filter3835"
       inkscape:label="Darken edges"
       inkscape:menu="Shadows and Glows"
       inkscape:menu-tooltip="Darken the edges with an inner blur"
       color-interpolation-filters="sRGB">
      <feGaussianBlur
         id="feGaussianBlur3837"
         result="result6"
         stdDeviation="1.5" />
      <feComposite
         id="feComposite3839"
         in2="result6"
         operator="atop"
         in="SourceGraphic"
         result="result8" />
      <feComposite
         id="feComposite3841"
         in2="SourceAlpha"
         in="result8"
         operator="atop"
         result="result9" />
    </filter>
    <filter
       id="filter3843"
       inkscape:label="Darken edges"
       inkscape:menu="Shadows and Glows"
       inkscape:menu-tooltip="Darken the edges with an inner blur"
       color-interpolation-filters="sRGB">
      <feGaussianBlur
         id="feGaussianBlur3845"
         result="result6"
         stdDeviation="1.5" />
      <feComposite
         id="feComposite3847"
         in2="result6"
         operator="atop"
         in="SourceGraphic"
         result="result8" />
      <feComposite
         id="feComposite3849"
         in2="SourceAlpha"
         in="result8"
         operator="atop"
         result="result9" />
    </filter>
    <filter
       id="filter3851"
       inkscape:label="Darken edges"
       inkscape:menu="Shadows and Glows"
       inkscape:menu-tooltip="Darken the edges with an inner blur"
       color-interpolation-filters="sRGB">
      <feGaussianBlur
         id="feGaussianBlur3853"
         result="result6"
         stdDeviation="1.5" />
      <feComposite
         id="feComposite3855"
         in2="result6"
         operator="atop"
         in="SourceGraphic"
         result="result8" />
      <feComposite
         id="feComposite3857"
         in2="SourceAlpha"
         in="result8"
         operator="atop"
         result="result9" />
    </filter>
    <filter
       id="filter3859"
       inkscape:label="Darken edges"
       inkscape:menu="Shadows and Glows"
       inkscape:menu-tooltip="Darken the edges with an inner blur"
       color-interpolation-filters="sRGB">
      <feGaussianBlur
         id="feGaussianBlur3861"
         result="result6"
         stdDeviation="1.5" />
      <feComposite
         id="feComposite3863"
         in2="result6"
         operator="atop"
         in="SourceGraphic"
         result="result8" />
      <feComposite
         id="feComposite3865"
         in2="SourceAlpha"
         in="result8"
         operator="atop"
         result="result9" />
    </filter>
    <filter
       id="filter3867"
       inkscape:label="Darken edges"
       inkscape:menu="Shadows and Glows"
       inkscape:menu-tooltip="Darken the edges with an inner blur"
       color-interpolation-filters="sRGB">
      <feGaussianBlur
         id="feGaussianBlur3869"
         result="result6"
         stdDeviation="1.5" />
      <feComposite
         id="feComposite3871"
         in2="result6"
         operator="atop"
         in="SourceGraphic"
         result="result8" />
      <feComposite
         id="feComposite3873"
         in2="SourceAlpha"
         in="result8"
         operator="atop"
         result="result9" />
    </filter>
    <filter
       id="filter3875"
       inkscape:label="Darken edges"
       inkscape:menu="Shadows and Glows"
       inkscape:menu-tooltip="Darken the edges with an inner blur"
       color-interpolation-filters="sRGB">
      <feGaussianBlur
         id="feGaussianBlur3877"
         result="result6"
         stdDeviation="1.5" />
      <feComposite
         id="feComposite3879"
         in2="result6"
         operator="atop"
         in="SourceGraphic"
         result="result8" />
      <feComposite
         id="feComposite3881"
         in2="SourceAlpha"
         in="result8"
         operator="atop"
         result="result9" />
    </filter>
    <filter
       id="filter3883"
       inkscape:label="Darken edges"
       inkscape:menu="Shadows and Glows"
       inkscape:menu-tooltip="Darken the edges with an inner blur"
       color-interpolation-filters="sRGB">
      <feGaussianBlur
         id="feGaussianBlur3885"
         result="result6"
         stdDeviation="1.5" />
      <feComposite
         id="feComposite3887"
         in2="result6"
         operator="atop"
         in="SourceGraphic"
         result="result8" />
      <feComposite
         id="feComposite3889"
         in2="SourceAlpha"
         in="result8"
         operator="atop"
         result="result9" />
    </filter>
    <filter
       id="filter3891"
       inkscape:label="Darken edges"
       inkscape:menu="Shadows and Glows"
       inkscape:menu-tooltip="Darken the edges with an inner blur"
       color-interpolation-filters="sRGB">
      <feGaussianBlur
         id="feGaussianBlur3893"
         result="result6"
         stdDeviation="1.5" />
      <feComposite
         id="feComposite3895"
         in2="result6"
         operator="atop"
         in="SourceGraphic"
         result="result8" />
      <feComposite
         id="feComposite3897"
         in2="SourceAlpha"
         in="result8"
         operator="atop"
         result="result9" />
    </filter>
  </defs>
  <sodipodi:namedview
     bordercolor="#666666"
     borderopacity="1.0"
     id="base"
     inkscape:cx="120"
     inkscape:cy="171.54527"
     inkscape:pageopacity="0.0"
     inkscape:pageshadow="2"
     inkscape:window-height="1018"
     inkscape:window-width="1920"
     inkscape:window-x="-8"
     inkscape:window-y="-8"
     inkscape:zoom="1.3657895"
     pagecolor="#ffffff"
     showguides="true"
     inkscape:guide-bbox="true"
     inkscape:current-layer="svg951"
     showgrid="false"
     inkscape:window-maximized="1">
    <sodipodi:guide
       orientation="0,1"
       position="-19.769,310"
       id="guide3162" />
    <sodipodi:guide
       orientation="0,1"
       position="-15.375723,70"
       id="guide3164" />
  </sodipodi:namedview>
  <path
     inkscape:connector-curvature="0"
     style="fill:none;stroke:#000000;stroke-width:8.01175117000000010;stroke-linecap:butt;stroke-linejoin:round;stroke-miterlimit:4;stroke-opacity:1;stroke-dasharray:none;filter:url(#filter3891)"
     d="m 88.015143,162.54189 c 0.790051,-0.8526 8.222238,-14.83059 28.709447,-20.55109 16.09105,-4.82476 22.06376,-2.73599 39.29079,-0.0156 41.82551,39.16257 41.80347,38.91514 75.33079,70.96162 -0.098,14.33324 0.27626,18.2825 8.7e-4,26.3708 -40.53496,-4.18326 -56.98988,11.7483 -80.1702,30.90341 -36.14762,-2.67396 -74.352454,13.80777 -93.900509,33.149 -9.233442,6.65879 -7.673456,1.69486 -8.198671,1.51819 -0.587518,-0.19755 -42.063563,-97.60699 -42.55402,-98.97411 -0.5732346,-1.59782 4.961868,-21.93211 5.581084,-22.36363 0.642133,-0.44747 7.308385,-14.00565 29.788489,-23.07976 25.661334,-10.35822 46.110154,-0.50108 47.052544,0.15562 1.984175,1.38267 55.466393,80.4582 56.307263,81.63013 -28.27769,-0.59605 -62.48835,1.98757 -89.592239,30.97864 -0.608362,1.48827 -39.912262,-90.07641 -40.721376,-91.20406"
     id="path3139"
     sodipodi:nodetypes="cccccccsssssccs" />
  <path
     inkscape:connector-curvature="0"
     style="fill:none;stroke:#000000;stroke-width:8.81292629000000010;stroke-linecap:round;stroke-linejoin:miter;stroke-miterlimit:4;stroke-opacity:1;stroke-dasharray:none;filter:url(#filter3883)"
     d="m 145.69852,241.81583 c 23.14484,-28.6064 54.9533,-34.72247 84.73305,-29.1588"
     id="path3141"
     sodipodi:nodetypes="cc" />
  <path
     inkscape:connector-curvature="0"
     style="fill:none;stroke:#000000;stroke-width:8.81292629000000010;stroke-linecap:butt;stroke-linejoin:miter;stroke-miterlimit:4;stroke-opacity:1;stroke-dasharray:none;filter:url(#filter3875)"
     d="m 56.164475,272.34829 c -2.831266,3.36493 -6.909091,33.10561 -5.175974,32.77113"
     id="path3143"
     sodipodi:nodetypes="cc" />
  <path
     inkscape:connector-curvature="0"
     id="path3081"
     d="M 53.822563,260.60665 C 50.725111,253.84087 39.973518,229.50023 30.47884,207.75852 26.61686,198.91504 22.451409,189.41605 21.22228,186.64966 l -2.234775,-5.02979 0.741781,-0.93222 c 3.36781,-4.23244 12.216627,-10.47725 19.685689,-13.89265 9.313938,-4.25901 16.47804,-5.8371 26.355687,-5.80558 7.607958,0.0243 11.620751,0.61587 17.814437,2.62635 l 3.053909,0.99131 3.683617,5.02373 c 4.188753,5.71264 20.544755,29.37806 35.993405,52.07868 l 10.45968,15.3697 -1.99441,0.10876 c -10.00612,0.54593 -18.01989,1.20504 -21.84478,1.79666 -20.933601,3.23791 -37.314775,10.50879 -51.822111,23.00151 -2.09437,1.80353 -3.897559,3.4812 -4.007077,3.72815 -0.409927,0.92441 -0.803026,0.31315 -3.284769,-5.10768 l 0,0 z"
     style="fill:#ececec;filter:url(#filter3867)" />
  <path
     inkscape:connector-curvature="0"
     id="path3083"
     d="m 133.76189,218.04834 c -15.23909,-22.41013 -26.11301,-38.23573 -33.31592,-48.48707 -4.865691,-6.92495 -5.833242,-8.5237 -5.498604,-9.08565 0.832139,-1.3974 6.062094,-5.72029 9.557154,-7.89957 4.2707,-2.66292 7.78678,-4.14039 14.31823,-6.01652 9.78585,-2.81099 15.97943,-3.0181 28.89435,-0.96625 l 6.78646,1.07819 17.47512,16.30189 c 9.61132,8.96604 23.67481,22.17859 31.25218,29.36125 l 13.77709,13.05934 -9.19621,0.30047 c -5.05793,0.16525 -10.49413,0.54377 -12.08047,0.84115 -10.24526,1.9206 -18.74464,4.8722 -26.97614,9.36808 -6.96364,3.80338 -16.95846,11.75517 -21.60788,17.19102 -0.8733,1.02102 -1.65612,1.85639 -1.7396,1.85639 -0.0834,0 -5.32406,-7.60622 -11.64576,-16.90272 l 0,0 z"
     style="fill:#ececec;filter:url(#filter3859)" />
  <path
     inkscape:connector-curvature="0"
     id="path3085"
     d="M 40.332347,275.28098 C 36.325849,265.9746 27.898327,246.27333 21.60452,231.50035 l -11.443288,-26.85994 1.48204,-6.00757 c 0.815121,-3.30416 1.695766,-6.70722 1.956988,-7.56238 l 0.474949,-1.55484 7.081904,16.21516 c 9.099004,20.83364 24.082914,54.76144 27.449296,62.15298 l 2.614282,5.74014 -0.5504,1.82648 c -0.525383,1.74348 -2.717885,13.41149 -2.945103,15.67321 -0.07826,0.77914 -2.128369,-3.61417 -7.392841,-15.84261 l 0,0 z"
     style="fill:#ececec;filter:url(#filter3851)" />
  <path
     inkscape:connector-curvature="0"
     id="path3087"
     d="m 54.912332,298.04111 c 0,-3.00807 2.260775,-16.04979 3.48881,-20.12575 1.23435,-4.09698 13.843388,-14.17876 24.335646,-19.458 14.70866,-7.40072 29.256762,-10.54708 50.898422,-11.00799 6.43866,-0.13716 12.2032,-0.35494 12.81015,-0.48402 0.6996,-0.14877 2.18999,-1.45851 4.07187,-3.57829 13.35185,-15.03979 29.47181,-23.73151 48.96731,-26.40264 6.80614,-0.93252 26.88264,-0.38037 28.22549,0.77627 0.1413,0.12164 0.25692,3.85226 0.25692,8.2901 l 0,8.06879 -4.83535,-0.3219 c -9.58804,-0.63828 -22.11955,1.04239 -31.36391,4.2064 -11.46356,3.92354 -21.80116,10.54385 -38.51082,24.66279 l -2.94332,2.48697 -7.52336,0.0237 c -13.32154,0.042 -24.55956,1.80869 -38.06848,5.98483 -18.060369,5.58315 -35.725308,15.2888 -46.994651,25.82029 -1.344612,1.25657 -2.528005,2.28469 -2.629743,2.28469 -0.101783,0 -0.184984,-0.5518 -0.184984,-1.22623 z"
     style="fill:#ececec;filter:url(#filter3843)" />
  <path
     inkscape:connector-curvature="0"
     d="m 63.78431,226.07776 c -0.233512,-0.44878 -0.463981,-0.90054 -0.692296,-1.35446 0,0 4.309526,-3.5347 4.309526,-3.5347 l 0,0 c 0.21522,0.43636 0.42894,0.87659 0.692852,1.26037 0,0 -4.310082,3.62879 -4.310082,3.62879 z"
     id="path3097"
     style="fill:#ececec;filter:url(#filter3803)" />
  <path
     inkscape:connector-curvature="0"
     d="m 118.8643,228.64069 c -1.57131,-0.26935 -3.1552,-0.36464 -4.73329,-0.54496 -1.64438,-0.23305 -3.30146,-0.19359 -4.94624,-0.39431 -0.99005,-0.22736 -2.00365,-0.35138 -2.95068,-0.84687 -0.24433,-0.12778 -0.75192,-0.48508 -1.0001,-0.65546 -0.16531,-0.0839 -0.39853,-0.26138 -0.59586,-0.18669 -0.068,0.0257 -0.2362,0.21367 -0.17437,0.16657 1.37828,-1.04977 2.74061,-2.14014 4.12457,-3.17529 0.0853,-0.064 -0.15701,0.16059 -0.22418,0.25792 -0.0899,0.13042 -0.1632,0.28128 -0.2448,0.42193 -0.7632,1.3933 -1.74819,2.48105 -2.79284,3.43575 -1.89683,0.7812 -3.86506,3.90065 -6.114536,4.40716 -0.837889,0.18866 -1.709719,0.13861 -2.552425,0.0829 -1.517399,-0.22354 -2.910493,-1.19617 -4.200496,-2.28429 -0.316337,-0.18631 -0.660875,-1.00967 -1.058758,-0.96027 -0.03064,0.004 -0.752933,0.63955 -0.70415,0.60258 1.235582,-0.93644 2.461075,-1.89854 3.691618,-2.84782 -0.227127,0.27026 -0.467088,0.52087 -0.681375,0.81077 -0.5817,0.78694 -1.096649,1.66438 -1.647805,2.49293 -1.005235,1.51111 -2.006053,3.02509 -2.994106,4.55816 -0.876859,1.4529 -1.736691,2.97187 -2.946655,3.91426 -5.104917,3.97602 -3.186283,3.36943 -5.983829,4.0405 -1.95192,0.29579 -3.67164,-0.82755 -5.305672,-2.16892 -0.869521,-0.73332 -1.676353,-1.68315 -2.628677,-2.2163 -0.381,-0.2133 -0.675691,-0.25317 -1.073153,-0.34613 -0.433467,0.0132 -0.869367,0.0149 -1.26888,0.28246 -0.10933,0.0732 -0.41592,0.34859 -0.310131,0.26575 4.017954,-3.14703 5.124605,-4.39143 3.452037,-2.58671 -0.852518,1.12008 -1.729188,2.21922 -2.524398,3.42017 -1.662901,2.65754 -4.160662,5.04152 -6.718636,4.51387 -0.854026,-0.32416 -1.619236,-0.9431 -2.372335,-1.5722 -0.389459,-0.27864 -0.768817,-0.57732 -1.162237,-0.84506 0,0 4.170195,-3.82004 4.170195,-3.82004 l 0,0 c 0.394431,0.28779 0.78601,0.58257 1.17669,0.88015 0.707613,0.55579 1.421232,1.15214 2.236532,1.33012 0.439062,0.009 0.515716,0.0529 0.945476,-0.10452 0.145548,-0.0534 0.552643,-0.32352 0.424887,-0.21268 -7.484554,6.49364 -4.415216,4.10634 -3.291682,2.53687 0.748794,-1.29411 1.718521,-2.30676 2.524587,-3.53174 1.817551,-2.43377 4.201962,-4.9667 6.79582,-4.50259 1.391952,0.51411 2.540959,1.68796 3.719957,2.80487 1.573506,1.26581 3.233044,2.21276 5.088454,1.76613 2.217199,-0.81271 0.977954,-0.4871 -2.445879,2.51385 -0.259273,0.22724 0.550522,-0.37948 0.806087,-0.61476 0.911168,-0.83886 1.593697,-2.03744 2.29877,-3.17545 1.289946,-1.97491 2.626102,-3.90702 3.869919,-5.93868 0.220958,-0.36091 0.413024,-0.7557 0.641184,-1.10777 0.194186,-0.29964 0.415698,-0.56253 0.623535,-0.8438 1.595716,-1.33562 3.172098,-2.71719 4.787139,-4.00689 0.312594,-0.24962 0.645956,-0.28144 0.982913,-0.12662 0.413166,0.1898 0.684839,0.7471 1.0502,1.04265 1.230565,1.05037 2.53492,1.97078 4.009635,2.03845 0.837,0.0215 1.65839,0.009 2.47685,-0.28224 1.64391,-0.58378 4.54436,-3.57321 -2.39581,2.27219 1.05514,-0.81965 2.04987,-1.8516 2.80264,-3.17712 0.0771,-0.13685 0.16264,-0.26514 0.23123,-0.41044 0.0638,-0.13525 0.0656,-0.34323 0.16461,-0.42804 2.81747,-2.41503 3.35992,-4.67099 5.47459,-3.19989 1.1911,0.83028 2.47008,1.19395 3.79727,1.32938 1.63052,0.15708 3.26654,0.20393 4.89314,0.44684 1.63408,0.16879 3.27243,0.23634 4.9035,0.45063 0,0 -4.12005,4.02872 -4.12005,4.02872 z"
     id="path3101"
     style="fill:#000000;filter:url(#filter3795)" />
  <path
     inkscape:connector-curvature="0"
     d="m 99.535911,208.98447 c -0.143682,0.0845 -0.279917,0.1998 -0.431048,0.2533 -0.778539,0.27556 -1.656896,0.199 -2.4488,0.21929 -1.559087,0.04 -0.995122,0.0189 -2.632128,0.13789 -2.996217,0.27286 -5.852655,1.54174 -8.613639,3.11015 -1.457738,0.70504 -3.09288,0.62865 -4.421875,1.78351 7.400731,-6.38292 2.833407,-2.13516 1.238124,-0.34818 -1.758779,1.94363 -3.649098,3.24401 -5.715442,4.7341 -0.0605,0.0436 -0.777374,0.0208 -0.844161,0.0196 -1.172247,-0.29245 -2.244547,-1.10385 -3.337478,-1.73716 -0.906617,-0.44345 -1.895379,-0.77516 -2.866107,-0.68058 -0.642659,0.0626 -1.020552,0.27686 -1.638794,0.53618 -0.288385,0.17982 -0.581024,0.34696 -0.86517,0.53945 -0.292261,0.19799 -0.578482,0.41315 -0.86323,0.63143 -0.311272,0.23861 -1.234493,0.9807 -0.924485,0.73894 1.009108,-0.787 1.992511,-1.64025 3.021843,-2.37462 0.372765,-0.26593 -0.699167,0.64261 -1.047679,0.96619 -0.325759,0.30245 -0.650086,0.60789 -0.975122,0.91185 -2.469467,2.16399 -4.80564,5.50035 -7.747822,6.13959 -0.260706,0.0567 -0.52655,0.0488 -0.789818,0.0735 -0.833193,0.0375 -1.64058,-0.24029 -2.447934,-0.48023 0,0 4.035181,-3.91299 4.035181,-3.91299 l 0,0 c 0.778163,0.21776 1.552995,0.44107 2.353012,0.30458 0.246708,-0.0589 0.498212,-0.0871 0.740135,-0.17658 1.355524,-0.50143 4.455663,-3.40972 -2.873998,2.57796 -0.221502,0.18095 0.443558,-0.36116 0.65881,-0.55623 0.538268,-0.48782 1.04477,-1.04168 1.586459,-1.52247 3.200033,-2.9696 6.427174,-6.02689 10.012514,-8.00076 0.301495,-0.0983 0.598718,-0.227 0.904486,-0.29518 1.295553,-0.28888 2.623716,0.12954 3.833626,0.75934 1.044471,0.61295 2.105115,1.41275 3.261026,1.43719 1.778812,-0.276 3.579392,-2.51406 -3.19009,3.00076 -0.112115,0.0914 0.224098,-0.1835 0.331919,-0.28436 0.267099,-0.24988 0.512674,-0.54279 0.787142,-0.77817 2.283352,-2.50581 4.525378,-4.83409 7.236326,-6.55623 1.384404,-0.82568 2.924046,-0.83665 4.331437,-1.59144 2.792829,-1.47538 5.673652,-2.63402 8.670977,-2.90324 0.47316,-0.0387 0.946308,-0.0777 1.419457,-0.11652 0.430304,-0.0297 0.860785,-0.055 1.290935,-0.0893 0.98353,-0.0782 1.98908,-0.12632 2.86527,-0.82982 0,0 -3.903859,4.35914 -3.903859,4.35914 z"
     id="path3103"
     style="fill:#000000;filter:url(#filter3787)" />
  <path
     inkscape:connector-curvature="0"
     d="m 85.003378,188.49075 c -1.818759,0.71524 -3.63631,1.43212 -5.436024,2.23916 -0.300506,0.14214 -1.558543,0.72722 -1.890074,0.91943 -0.65245,0.37829 -0.585652,0.51457 -1.259036,0.72852 -0.425288,0.13512 -1.04769,0.16614 -1.475997,0.20485 -1.538187,0.0451 -3.075898,-0.0178 -4.61282,0.0919 -2.190216,0.0752 -4.172704,1.2881 -6.119497,2.56807 -2.044979,1.31909 -3.891976,3.28641 -6.079049,4.134 -1.054395,0.26203 -1.9931,-0.21709 -2.974992,-0.63159 -1.425386,-0.0669 -2.766579,0.95462 -3.988498,1.8517 0.929769,-0.74361 1.84713,-1.51823 2.789333,-2.23083 0.455299,-0.34436 -0.886383,0.74761 -1.327809,1.12546 -1.400266,1.19852 -2.77578,2.44943 -4.189675,3.61678 -1.946693,1.2673 -4.868086,4.98704 -7.595604,4.60406 -0.631292,-0.0886 -0.953543,-0.34723 -1.531419,-0.68305 -1.222269,-0.89276 -2.44192,-1.85066 -3.472833,-3.14072 -0.304266,-0.43231 -0.649322,-0.79977 -0.978278,-1.19341 0,0 4.252017,-3.67971 4.252017,-3.67971 l 0,0 c 0.316526,0.40604 0.642243,0.79814 0.94597,1.22324 0.98693,1.22002 2.129046,2.20399 3.325546,2.97088 0.567005,0.26257 0.810889,0.44554 1.411536,0.45736 1.953791,0.0383 5.496089,-3.34598 -0.874206,1.85949 3.704311,-2.93263 7.152276,-6.47096 10.984336,-9.10616 1.338631,-0.93099 2.847815,-2.06319 4.394494,-1.60344 0.895239,0.42489 1.767236,0.72908 2.717085,0.36923 2.095059,-1.00951 3.930469,-2.81168 5.938985,-4.0948 2.017253,-1.27779 4.080502,-2.40993 6.33063,-2.4646 1.534737,-0.0942 3.070527,0.0217 4.603875,-0.12282 0.638453,-0.11183 0.816676,-0.10129 1.423662,-0.36622 1.031287,-0.45012 1.999949,-1.19113 3.062691,-1.52111 1.865311,-0.81365 3.74967,-1.54443 5.599386,-2.4245 0,0 -3.973735,4.29881 -3.973735,4.29881 z"
     id="path3105"
     style="fill:#000000;filter:url(#filter3779)" />
  <path
     inkscape:connector-curvature="0"
     d="m 34.07399,181.51008 c 1.017078,-0.7545 2.089405,-1.3243 3.188442,-1.79595 0.242469,-0.0813 0.483569,-0.17088 0.727408,-0.24371 0.251667,-0.0752 0.985008,-0.37097 0.758668,-0.20018 -1.103389,0.83256 -2.185775,1.85796 -3.415552,2.20493 -0.452,0.12751 0.583774,-0.99524 0.878818,-1.4892 1.109179,-1.85705 0.643449,-1.13916 1.835633,-2.77363 2.270502,-2.38429 1.463959,-1.61931 5.910376,-4.96055 0.246015,-0.18486 0.520235,-0.33175 0.799313,-0.35301 0.995849,-0.0758 2.32571,0.77493 3.205999,1.31645 2.05782,1.3925 3.986976,3.14464 6.153161,4.21843 0.376583,0.18667 0.765153,0.32252 1.14773,0.48378 0.900001,0.0987 1.133235,0.25564 1.99421,-0.14325 0.302394,-0.1401 1.138328,-0.79792 0.86083,-0.57957 -1.088225,0.85623 -2.137137,1.83647 -3.294258,2.49422 -0.337191,0.1917 0.544995,-0.6782 0.780516,-1.0653 0.250072,-0.41097 0.446932,-0.87947 0.670398,-1.3192 1.387612,-3.33471 3.40584,-8.62644 6.921854,-7.52885 0.933344,0.69553 1.768358,1.62423 2.658924,2.42724 0.382066,0.27845 0.922223,0.82523 1.39102,0.58801 0.163407,-0.0827 0.298142,-0.24975 0.451594,-0.36362 -1.359076,1.07054 -2.707941,2.16669 -4.077227,3.21166 -0.100673,0.0769 0.176049,-0.2052 0.266542,-0.30352 0.250371,-0.27201 0.573688,-0.61097 0.848089,-0.82507 4.963186,-3.87243 3.14435,-3.02186 5.667937,-4.09087 2.437323,-0.9611 4.945949,-0.29468 7.404671,0.12302 1.423464,0.25339 2.847693,0.49691 4.275263,0.70075 0,0 -4.008143,3.95578 -4.008143,3.95578 l 0,0 c -1.378066,-0.27372 -2.752791,-0.57864 -4.131891,-0.84243 -2.472186,-0.42291 -4.998515,-0.8673 -7.41364,0.25865 -2.08578,1.06652 -0.839652,0.50222 2.839091,-2.59291 0.15082,-0.12689 -0.315902,0.21904 -0.465756,0.34813 -0.220958,0.19034 -0.403222,0.46056 -0.625754,0.64728 -1.503469,1.26151 -3.019769,2.49309 -4.529641,3.73964 -0.767807,0.30789 -1.434875,-0.23731 -2.069331,-0.81777 -0.219593,-0.20031 -0.720822,-0.65574 -0.93401,-0.85749 -0.395197,-0.37398 -0.798197,-0.87275 -1.247748,-1.12213 -0.114014,-0.0632 -0.238306,-0.0818 -0.357447,-0.12277 -1.78615,0.45435 -0.796477,0.26103 3.49851,-3.16428 0.16769,-0.13374 -0.308366,0.33082 -0.434046,0.53532 -0.622846,1.01345 -0.989341,2.29989 -1.514611,3.40125 -1.806828,4.08962 -2.197154,3.53995 -6.394541,6.78134 -0.934511,0.72166 -2.017963,0.59651 -3.012987,0.29592 -2.551193,-1.2556 -4.901429,-3.08477 -7.324776,-4.74071 -0.803871,-0.43094 -1.264217,-0.7699 -2.12536,-0.88441 -0.312676,-0.0416 -0.633267,-0.041 -0.941822,0.041 -0.25444,0.0675 -0.939255,0.59683 -0.721978,0.40034 0.742467,-0.6714 5.211118,-4.38582 2.309335,-1.82621 -1.064965,1.33675 -0.953278,1.09196 -1.876731,2.69041 -0.283075,0.48997 -0.454063,1.1293 -0.814916,1.5072 -4.1172,4.31163 -3.467846,3.95891 -6.418384,5.05167 -1.111426,0.53531 -2.199324,1.16343 -3.214394,1.99872 0,0 3.920612,-4.41449 3.920612,-4.41449 z"
     id="path3107"
     style="fill:#000000;filter:url(#filter3771)" />
  <path
     inkscape:connector-curvature="0"
     d="m 144.07039,220.42797 c 0.1843,-2.47583 0.39657,-4.92972 0.80888,-7.35479 0.47745,-2.53395 1.3182,-4.79871 2.54476,-6.77037 1.96618,-3.08408 4.64573,-4.76244 7.20447,-6.77616 0.48909,-0.26686 0.92221,-0.76704 1.45724,-0.86355 0.18258,-0.0329 0.92456,6.4e-4 1.07392,0.006 1.32081,0.24642 2.50489,1.15281 3.68985,1.93982 1.52288,0.97717 0.77941,0.48875 2.23111,1.46309 0.73722,0.39486 1.51469,1.18298 2.34406,1.19698 0.16322,0.003 0.61534,-0.28414 0.47436,-0.16943 -4.57037,3.71891 -5.00027,4.34188 -3.59405,2.54332 0.73062,-1.63433 1.00614,-3.55095 1.44123,-5.35675 0.86564,-2.82416 3.01017,-3.42722 5.10335,-4.94795 0.24307,-0.17658 1.52092,0.20814 1.8057,0.29188 1.42312,0.63596 2.64117,1.94257 3.85162,3.12938 0.41226,0.35925 0.93142,1.22757 1.5053,0.95477 0.1821,-0.0865 0.64209,-0.58793 0.47157,-0.46381 -3.78144,2.75242 -4.6284,4.31299 -3.11391,1.89724 1.09109,-2.29359 1.99621,-4.74914 2.91338,-7.18315 1.26801,-3.4785 2.47758,-3.74951 5.72962,-5.93039 0.24763,-0.16608 1.25055,0.49819 1.37415,0.56879 1.53811,1.32832 3.0706,2.6651 4.53841,4.14087 0.42824,0.37139 0.85549,0.83299 1.34877,1.03466 0.11743,0.048 0.24275,0.1032 0.36331,0.0738 0.12528,-0.0307 0.22577,-0.16343 0.33866,-0.24513 -1.28181,0.97288 -2.56362,1.94579 -3.84543,2.91869 0.96346,-0.9823 1.55132,-2.45312 2.19783,-3.81471 1.24167,-2.82174 3.58818,-4.72526 5.93382,-5.17437 0,0 -3.98887,4.2215 -3.98887,4.2215 l 0,0 c -1.57821,0.66033 -4.31488,3.28927 3.3516,-2.95514 0.0907,-0.074 -0.17636,0.16197 -0.25307,0.26206 -0.21415,0.27943 -0.31451,0.53885 -0.47747,0.88129 -0.72058,1.34 -1.25384,2.89445 -2.15123,4.03245 -4.09564,3.30936 -4.08619,5.38976 -6.98465,2.44497 -1.40578,-1.47376 -2.84114,-2.9154 -4.43658,-3.97139 -0.23361,-0.0769 -0.46154,-0.20445 -0.70082,-0.23071 -0.17454,-0.0191 -0.66508,0.23446 -0.52062,0.0967 1.22003,-1.16382 2.52578,-2.14273 3.78865,-3.21408 -0.13262,0.15643 -0.28044,0.29084 -0.39789,0.46929 -0.28497,0.43301 -0.54381,1.10897 -0.75199,1.59753 -0.93137,2.44702 -1.88626,4.88074 -2.8795,7.28034 -1.45143,3.13653 -0.48007,1.3723 -5.26632,5.06616 -0.19277,0.14877 -0.42963,0.18174 -0.64978,0.16912 -0.63283,-0.0363 -1.10737,-0.79477 -1.59008,-1.24798 -1.15024,-1.16636 -2.34755,-2.39036 -3.75522,-2.84768 -0.42853,-0.0799 -0.7231,-0.17667 -1.16058,-0.0841 -0.16173,0.0344 -0.60637,0.3268 -0.46821,0.20477 1.26792,-1.12002 2.58,-2.13983 3.87,-3.20973 -0.11901,0.10759 -0.25881,0.18 -0.35701,0.32265 -0.10612,0.15424 -0.16067,0.3641 -0.24099,0.54614 -0.53455,1.80769 -0.80218,3.73991 -1.37114,5.53067 -1.08149,2.83812 -0.32457,1.15694 -4.97001,4.31736 -0.50004,0.34018 -2.40554,-1.15822 -2.84441,-1.45002 -1.82628,-1.26965 -3.83787,-2.8211 -5.89925,-3.02607 -0.95642,0.0943 -1.58695,0.47607 -2.40448,1.14899 -1.67187,1.30402 -0.52982,0.41826 3.37646,-2.77817 0.16899,-0.13437 -0.32268,0.3035 -0.47751,0.46769 -0.60475,0.64126 -1.20614,1.30724 -1.72062,2.08967 -1.31038,1.8697 -2.13187,3.95449 -2.66175,6.46812 -0.42647,2.36273 -0.72412,4.74734 -0.70276,7.19463 0,0 -4.49588,3.09509 -4.49588,3.09509 z"
     id="path3113"
     style="fill:#000000;filter:url(#filter3763)" />
  <path
     inkscape:connector-curvature="0"
     d="m 177.34076,177.62912 c -0.99997,0.54211 -1.97941,1.1541 -2.95451,1.7771 -0.15684,0.10246 -0.31446,0.20265 -0.47051,0.30738 -0.32828,0.22029 -1.28705,0.95178 -0.97204,0.69662 8.29851,-6.72183 0.48339,-0.19705 -2.42062,1.72495 -1.41055,1.06868 -2.94327,1.65474 -4.49592,2.15433 -0.56548,0.18258 -1.12925,0.37676 -1.68771,0.59773 -0.14445,0.0572 -0.28395,0.21448 -0.43188,0.17854 -0.46324,-0.11273 -0.8908,-0.42126 -1.34117,-0.60971 -0.56093,-0.23473 -1.12808,-0.4397 -1.69211,-0.65954 -2.37641,-0.88723 -4.83303,-1.98184 -7.28903,-1.13258 -0.15939,0.093 -0.32613,0.16451 -0.47816,0.27893 -0.12563,0.0947 -0.47466,0.44109 -0.34989,0.34431 1.34463,-1.04301 2.66127,-2.15558 4.01148,-3.18452 0.0833,-0.0635 -0.13685,0.18388 -0.20139,0.281 -0.12262,0.18448 -0.23709,0.37922 -0.35931,0.56418 -4.15614,3.59275 -3.21606,4.04549 -5.79655,3.12945 -0.63303,-0.22471 -1.23354,-0.41626 -1.88508,-0.4781 -0.14928,0.0395 -0.3053,0.0451 -0.44783,0.11857 -0.12363,0.0636 -0.45338,0.37472 -0.33797,0.28598 1.34416,-1.03368 2.65512,-2.15391 4.02455,-3.12101 0.11156,-0.0787 -0.15813,0.27367 -0.21379,0.4298 -0.16262,0.45637 -0.20573,0.88132 -0.28397,1.37468 -0.147,1.89851 -0.32648,3.79001 -0.58076,5.66749 -0.41371,3.48053 -0.98178,2.61716 -4.70099,5.28173 -0.0619,0.0443 -0.54809,-0.68189 -0.55871,-0.69701 -0.93043,-1.33026 -1.91408,-2.596 -3.1571,-3.31038 -0.15116,-0.028 -0.30133,-0.0981 -0.45346,-0.0838 -0.1423,0.0132 -0.28289,0.078 -0.41119,0.16471 -0.12807,0.0866 -0.4715,0.44284 -0.34664,0.34757 1.31277,-1.00166 2.58737,-2.10025 3.91291,-3.06873 0.1583,-0.11564 -0.27188,0.32431 -0.3981,0.50067 -0.13818,0.19308 -0.26278,0.40416 -0.39418,0.60625 -0.82703,1.46833 -1.62609,2.9138 -2.65706,4.11654 -3.39516,3.51912 -4.83131,5.06558 -8.43734,4.5739 -1.27518,-0.29171 -2.54474,-0.61517 -3.82536,-0.85883 0,0 3.98482,-3.91296 3.98482,-3.91296 l 0,0 c 1.2718,0.27679 2.53836,0.60967 3.81849,0.80379 0.80544,0.0497 1.58891,0.0925 2.37368,-0.23012 0.22263,-0.0915 0.84399,-0.52935 0.6475,-0.35711 -1.02516,0.89859 -5.2777,4.39523 -3.14324,2.53947 1.14085,-1.18545 1.85194,-2.37747 2.6759,-3.98384 1.59256,-2.73081 1.80659,-2.25992 5.34772,-5.0569 0.44472,-0.35124 1.00208,-0.13437 1.43685,0.0917 1.21903,0.89968 2.23089,2.17981 3.28245,3.40968 0.066,0.0539 0.12171,0.15315 0.19792,0.16163 0.0375,0.004 0.0925,-0.15969 0.06,-0.13292 -1.38442,1.14798 -2.74349,2.35458 -4.12685,3.50504 -0.0662,0.055 0.13123,-0.12442 0.17176,-0.21582 0.13372,-0.30144 0.20417,-0.88165 0.25557,-1.18903 0.27645,-1.86554 0.50925,-3.73945 0.56371,-5.64685 0.0278,-0.2552 0.20351,-2.00698 0.34131,-2.13964 1.97971,-1.90573 3.26184,-4.05697 5.42395,-3.97179 0.63967,0.14433 1.26013,0.37762 1.89646,0.54277 2.10136,0.54539 3.37329,-1.57624 -2.93025,3.4097 0.36757,-0.27632 0.39691,-0.62027 0.59612,-0.79805 1.72746,-1.54133 3.37353,-3.54552 5.39462,-4.24197 2.46404,-0.43337 4.83655,0.76457 7.20023,1.58088 1.26044,0.40495 1.88142,0.72283 3.13286,0.73318 0.14622,9.7e-4 0.28261,-0.1048 0.42429,-0.15502 0.5548,-0.19681 1.11266,-0.37624 1.66985,-0.55922 1.50745,-0.51041 2.97712,-1.16456 4.3527,-2.18751 0.32354,-0.22268 1.27645,-0.93506 0.97062,-0.66808 -1.08119,0.94389 -4.41835,3.55778 -3.30012,2.70176 2.09826,-1.60628 4.08783,-3.5179 6.29083,-4.84866 1.00577,-0.62581 2.01376,-1.24555 3.03682,-1.81489 0,0 -3.96533,4.33243 -3.96533,4.33243 z"
     id="path3115"
     style="fill:#000000;filter:url(#filter3755)" />
  <path
     inkscape:connector-curvature="0"
     d="m 117.37073,174.03947 c 3.07755,-2.93892 6.32732,-5.55248 9.69421,-7.79147 1.83276,-1.24825 3.82251,-1.88121 5.75334,-2.74268 1.26022,-0.65174 2.49036,-1.42884 3.66068,-2.35121 -7.17307,5.74799 -4.25243,3.54962 -2.72257,2.06003 0.85861,-0.87154 1.7192,-1.7369 2.59832,-2.56811 2.85281,-2.47545 5.69445,-5.04627 8.78477,-6.90973 0.29404,-0.15033 0.57331,-0.52371 0.88216,-0.45097 0.42819,0.10086 0.7162,0.70709 1.12188,0.92301 0.58973,0.31387 2.1199,0.47659 2.70226,0.53703 1.00266,0.10406 2.06996,0.14807 3.07397,0.20154 2.25096,0.11208 4.50337,0.12745 6.75507,0.18499 0.21367,0.003 0.42736,0.005 0.64103,0.008 0,0 -4.00774,4.03687 -4.00774,4.03687 l 0,0 c -0.20573,-0.0119 -0.41148,-0.0238 -0.6172,-0.0356 -2.20292,-0.1227 -4.40683,-0.21463 -6.60978,-0.33986 -1.52353,-0.0867 -3.0856,-0.0925 -4.59381,-0.44406 -0.46303,-0.10794 -0.91985,-0.26683 -1.37253,-0.44028 -0.31492,-0.1207 -0.60078,-0.45053 -0.92732,-0.44106 -0.3154,0.009 -0.5851,0.32893 -0.87765,0.49337 -0.26588,0.17266 -0.53424,0.33806 -0.79763,0.51796 -0.24531,0.16753 -0.96241,0.71989 -0.72813,0.52408 1.14624,-0.95807 2.3115,-1.87125 3.46519,-2.81181 0.2526,-0.20593 -0.50943,0.40168 -0.7619,0.60792 -0.2679,0.21885 -0.53458,0.44061 -0.79911,0.66727 -0.26027,0.22299 -0.51677,0.45439 -0.77517,0.68158 -0.84145,0.78525 -1.67199,1.59219 -2.46265,2.47509 -1.84211,1.85624 -3.8593,3.34739 -5.84751,4.87116 -1.18761,0.8496 -2.4125,1.61267 -3.68014,2.19975 -1.89623,0.77692 -3.82117,1.45367 -5.59739,2.70234 -2.33509,1.58764 -1.20818,0.87894 1.68727,-1.58377 0.34713,-0.29527 -0.71034,0.55267 -1.05836,0.84589 -0.48415,0.40791 -1.0066,0.90622 -1.47317,1.36411 -0.14704,0.14429 -0.29144,0.29372 -0.43715,0.44059 0,0 -4.67324,2.56774 -4.67324,2.56774 z"
     id="path3117"
     style="fill:#000000;filter:url(#filter3747)" />
  <path
     sodipodi:nodetypes="cccccccccc"
     id="path1316"
     d="m 177.72009,149.83869 -55.58848,56.9718 -55.597126,-57.19276 0.01274,-31.68731 42.997476,43.78418 0.016,-90.773906 24.72873,0.02817 0.005,91.343196 43.42615,-44.25491 0,31.78157 z"
     style="fill:#4d4d4d;fill-opacity:1;fill-rule:evenodd;stroke:#000000;stroke-width:0.22581383999999999px;stroke-linecap:butt;stroke-linejoin:miter;stroke-opacity:1;filter:url(#filter3277)"
     inkscape:connector-curvature="0" />
</svg>
