<?xml version="1.0" encoding="UTF-8" standalone="no"?>
<!-- Created with Inkscape (http://www.inkscape.org/) -->
<svg xmlns:svg="http://www.w3.org/2000/svg" xmlns="http://www.w3.org/2000/svg" xmlns:xlink="http://www.w3.org/1999/xlink" version="1.0" width="800pt" height="300pt" id="svg22861">
  <defs id="defs22863">
    <marker refX="0" refY="0" orient="auto" style="overflow:visible" id="Arrow2Mend">
      <path d="M 8.7185878,4.0337352 L -2.2072895,0.016013256 L 8.7185884,-4.0017078 C 6.97309,-1.6296469 6.9831476,1.6157441 8.7185878,4.0337352 z " transform="matrix(-0.6, 0, 0, -0.6, 3, 0)" style="font-size:12px;fill-rule:evenodd;stroke-width:0.625;stroke-linejoin:round" id="path6759"/>
    </marker>
    <marker refX="0" refY="0" orient="auto" style="overflow:visible" id="Arrow2Mstart">
      <path d="M 8.7185878,4.0337352 L -2.2072895,0.016013256 L 8.7185884,-4.0017078 C 6.97309,-1.6296469 6.9831476,1.6157441 8.7185878,4.0337352 z " transform="matrix(0.6, 0, 0, 0.6, -3, 0)" style="font-size:12px;fill-rule:evenodd;stroke-width:0.625;stroke-linejoin:round" id="path6762"/>
    </marker>
  </defs>
  <g id="layer1">
    <path d="M 90.599346,65.182579 C 144.56493,135.4251 135.47034,224.75957 91.513446,288.22351 M 41.237826,105.40307 C 72.350846,156.44945 70.569076,207.39163 41.237826,248.00301 M 74.145516,77.980009 C 120.79828,141.82382 112.61779,211.04804 75.059616,275.42608 M 56.634106,90.68363 C 95.120256,145.91461 95.033066,212.08381 55.457806,265.46484" style="fill:none;fill-opacity:1;fill-rule:evenodd;stroke:#2f17ff;stroke-width:8;stroke-linecap:round;stroke-linejoin:round;stroke-miterlimit:4;stroke-dashoffset:0;stroke-opacity:1;display:inline" id="Soundwave"/>
    <path d="M 222.23006,53.299259 C 207.76216,135.87315 212.52434,218.44705 222.23006,301.02094" style="fill:none;fill-opacity:1;fill-rule:evenodd;stroke:#ff1717;stroke-width:8;stroke-linecap:round;stroke-linejoin:round;stroke-miterlimit:4;stroke-dasharray:none;stroke-dashoffset:0;stroke-opacity:1;display:inline" id="path2232"/>
    <path d="M 222.23006,71.581299 C 236.61032,100.95834 234.82675,231.84508 223.14416,297.36453" style="fill:none;fill-opacity:1;fill-rule:evenodd;stroke:#ff1717;stroke-width:5;stroke-linecap:round;stroke-linejoin:round;stroke-miterlimit:4;stroke-dasharray:none;stroke-dashoffset:0;stroke-opacity:1;display:inline" id="path2234"/>
    <path d="M 508.60727,235.08249 C 508.60727,235.08249 514.06522,193.48399 515.16735,188.22312 C 516.58346,181.46349 524.37059,184.96003 524.37059,184.96003 C 524.37059,184.96003 526.5373,148.62144 531.36122,148.00953 C 537.37502,147.24669 554.89364,213.19211 561.13171,214.48933 C 565.2732,215.35056 562.38625,158.0161 571.3336,172.78672 C 593.41199,209.2345 596.28155,240.05716 657.97602,236.86454" style="opacity:1;fill:none;fill-opacity:1;fill-rule:evenodd;stroke:#c925ff;stroke-width:10;stroke-linecap:round;stroke-linejoin:round;stroke-miterlimit:4;stroke-dasharray:none;stroke-dashoffset:0;stroke-opacity:1;display:inline" id="path3984"/>
    <path d="M 712.48781,227.44403 C 783.48338,230.01096 763.01404,228.9159 768.32916,110.50091 C 771.29657,165.66785 771.8361,171.46779 773.58957,239.58345 C 798.08632,223.55315 818.45409,227.55131 861.80272,227.44403" style="opacity:1;fill:none;fill-opacity:1;fill-rule:evenodd;stroke:#ff9f2b;stroke-width:10;stroke-linecap:round;stroke-linejoin:round;stroke-miterlimit:4;stroke-dasharray:none;stroke-dashoffset:0;stroke-opacity:1;display:inline" id="path4861"/>
    <path d="M 196.68091,111.51951 L 246.84716,111.51951" style="opacity:1;fill:none;fill-opacity:1;fill-rule:evenodd;stroke:#000000;stroke-width:3;stroke-linecap:round;stroke-linejoin:round;marker-start:url(#Arrow2Mstart);marker-end:url(#Arrow2Mend);stroke-miterlimit:4;stroke-dasharray:none;stroke-dashoffset:0;stroke-opacity:1;display:inline" id="path6801"/>
    <path d="M 196.68091,239.34824 L 246.84716,239.34824" style="opacity:1;fill:none;fill-opacity:1;fill-rule:evenodd;stroke:#000000;stroke-width:3;stroke-linecap:round;stroke-linejoin:round;marker-start:url(#Arrow2Mstart);marker-end:url(#Arrow2Mend);stroke-miterlimit:4;stroke-dasharray:none;stroke-dashoffset:0;stroke-opacity:1;display:inline" id="path7684"/>
    <path d="M 360.90214,176.11324 C 353.58232,177.54487 347.21559,180.79444 347.71705,188.08572 C 348.21734,195.35993 357.33179,194.03101 356.98805,188.08572 C 356.6443,182.14043 349.10676,176.64619 341.73466,176.11324 C 334.35347,175.57963 328.21053,180.73994 328.2541,188.08572 C 328.29767,195.4315 338.50101,193.68187 338.44605,188.08572 C 338.39116,182.49657 331.36234,176.11324 324.4091,176.11324 C 317.45585,176.11324 310.53407,180.85075 310.63306,188.08572 C 310.73206,195.32069 319.58476,194.94957 319.67382,188.77644 C 319.76288,182.60331 310.53714,177.26444 305.93234,176.80396 C 301.34466,176.34519 291.83093,182.56836 292.09107,188.08572 C 292.35122,193.60308 301.51251,193.92933 301.36207,188.08572 C 301.2057,182.01203 294.8693,176.11324 287.91605,176.11324 C 280.96281,176.11324 273.4332,180.82621 273.54908,188.08572 C 273.66496,195.57547 282.83093,194.09019 282.82008,188.08572 C 282.80926,182.0981 276.62278,176.11324 269.66953,176.11324 C 262.71629,176.11324 255.39737,181.1787 255.00709,188.08572 C 254.62977,194.76324 264.36476,194.88693 264.27808,188.08572 C 264.18565,180.83345 256.49006,176.55385 251.42301,176.11324 C 246.12749,175.65276 236.1925,180.28929 236.4651,188.08572 C 236.70554,194.96239 245.66913,193.44674 245.73609,188.08572 C 245.80881,182.26429 240.12974,175.883 233.17649,175.883 C 226.22324,175.883 218.27694,181.49816 217.9231,188.08572 C 217.56972,194.66495 226.74868,193.93017 227.1941,188.08572 C 227.6744,181.78356 215.6936,174.78936 209.17397,175.42252" style="fill:none;fill-opacity:1;fill-rule:evenodd;stroke:#ffe800;stroke-width:5;stroke-linecap:round;stroke-linejoin:round;stroke-miterlimit:4;stroke-dasharray:none;stroke-dashoffset:0;stroke-opacity:1;display:inline" id="path2257"/>
    <path d="M 265.97298 214.26996 A 7.3225241 7.3225241 0 1 1  251.32793,214.26996 A 7.3225241 7.3225241 0 1 1  265.97298 214.26996 z" transform="matrix(0.83871, 0, 0, 0.83871, -5.60971, -5.02597)" style="fill:#ffe800;fill-opacity:1;fill-rule:evenodd;stroke:none;stroke-width:6;stroke-linecap:round;stroke-linejoin:round;stroke-miterlimit:4;stroke-dasharray:none;stroke-dashoffset:0;stroke-opacity:1;display:inline" id="path8564"/>
    <path d="M 265.97298 214.26996 A 7.3225241 7.3225241 0 1 1  251.32793,214.26996 A 7.3225241 7.3225241 0 1 1  265.97298 214.26996 z" transform="matrix(0.83871, 0, 0, 0.83871, 145.565, -2.66387)" style="fill:#ffe800;fill-opacity:1;fill-rule:evenodd;stroke:none;stroke-width:6;stroke-linecap:round;stroke-linejoin:round;stroke-miterlimit:4;stroke-dasharray:none;stroke-dashoffset:0;stroke-opacity:1;display:inline" id="path9439"/>
    <path d="M 265.97298 214.26996 A 7.3225241 7.3225241 0 1 1  251.32793,214.26996 A 7.3225241 7.3225241 0 1 1  265.97298 214.26996 z" transform="matrix(0.83871, 0, 0, 0.83871, 151.234, 16.233)" style="opacity:1;fill:#07af00;fill-opacity:1;fill-rule:evenodd;stroke:none;stroke-width:6;stroke-linecap:round;stroke-linejoin:round;stroke-miterlimit:4;stroke-dasharray:none;stroke-dashoffset:0;stroke-opacity:1;display:inline" id="path9441"/>
    <path d="M 498.08245,113.26966 L 498.08245,254.52351 L 682.32662,254.52351 M 701.47524,113.26966 L 701.47524,254.52351 L 885.7194,254.52351" style="fill:none;fill-opacity:1;fill-rule:evenodd;stroke:#000000;stroke-width:3;stroke-linecap:round;stroke-linejoin:round;stroke-miterlimit:4;stroke-dashoffset:0;stroke-opacity:1;display:inline" id="Axis"/>
    <use transform="translate(-190.847, 2.85713)" style="display:inline" id="Arrow2" x="0" y="0" width="1000" height="744.09003" xlink:href="#path6799"/>
    <use transform="translate(-481.452, 2.85713)" style="display:inline" id="Arrow1" x="0" y="0" width="1000" height="744.09003" xlink:href="#path6799"/>
    <text x="94.519463" y="43.848743" style="font-size:32px;font-style:normal;font-variant:normal;font-weight:normal;font-stretch:normal;text-align:center;line-height:100%;writing-mode:lr-tb;text-anchor:middle;fill:#000000;fill-opacity:1;stroke:none;stroke-width:1px;stroke-linecap:butt;stroke-linejoin:miter;stroke-opacity:1;display:inline;font-family:Bitstream Vera Sans" id="text13835" xml:space="preserve"><tspan x="94.519463" y="43.848743" id="tspan13837">Stimulus</tspan></text>
    <text x="790.56097" y="43.848743" style="font-size:32px;font-style:normal;font-variant:normal;font-weight:normal;font-stretch:normal;text-align:center;line-height:100%;writing-mode:lr-tb;text-anchor:middle;fill:#000000;fill-opacity:1;stroke:none;stroke-width:1px;stroke-linecap:butt;stroke-linejoin:miter;stroke-opacity:1;display:inline;font-family:Bitstream Vera Sans" id="text13839" xml:space="preserve"><tspan x="790.56097" y="43.848743" id="tspan13841">Response</tspan></text>
    <text x="67.322441" y="325.8187" style="font-size:16px;font-style:normal;font-variant:normal;font-weight:normal;font-stretch:normal;text-align:center;line-height:100%;writing-mode:lr-tb;text-anchor:middle;fill:#000000;fill-opacity:1;stroke:none;stroke-width:1px;stroke-linecap:butt;stroke-linejoin:miter;stroke-opacity:1;display:inline;font-family:Bitstream Vera Sans" id="text13843" xml:space="preserve"><tspan x="67.322441" y="325.8187" id="tspan13847">Sound</tspan><tspan x="67.322441" y="341.8187" id="tspan13851">waves</tspan></text>
    <text x="219.42412" y="325.51108" style="font-size:16px;font-style:normal;font-variant:normal;font-weight:normal;font-stretch:normal;text-align:center;line-height:100%;writing-mode:lr-tb;text-anchor:middle;fill:#000000;fill-opacity:1;stroke:none;stroke-width:1px;stroke-linecap:butt;stroke-linejoin:miter;stroke-opacity:1;display:inline;font-family:Bitstream Vera Sans" id="text13853" xml:space="preserve"><tspan x="219.42412" y="325.51108" id="tspan13855">Ear</tspan><tspan x="219.42412" y="341.51108" id="tspan13857">Drum</tspan></text>
    <text x="308.06616" y="335.8187" style="font-size:16px;font-style:normal;font-variant:normal;font-weight:normal;font-stretch:normal;text-align:center;line-height:100%;writing-mode:lr-tb;text-anchor:middle;fill:#000000;fill-opacity:1;stroke:none;stroke-width:1px;stroke-linecap:butt;stroke-linejoin:miter;stroke-opacity:1;display:inline;font-family:Bitstream Vera Sans" id="text13859" xml:space="preserve"><tspan x="308.06616" y="335.8187" id="tspan13861">Cochlea</tspan></text>
    <text x="418.86877" y="315.8187" style="font-size:16px;font-style:normal;font-variant:normal;font-weight:normal;font-stretch:normal;text-align:center;line-height:100%;writing-mode:lr-tb;text-anchor:middle;fill:#000000;fill-opacity:1;stroke:none;stroke-width:1px;stroke-linecap:butt;stroke-linejoin:miter;stroke-opacity:1;display:inline;font-family:Bitstream Vera Sans" id="text13863" xml:space="preserve"><tspan x="418.86877" y="315.8187" id="tspan13865">Auditory</tspan><tspan x="418.86877" y="331.8187" id="tspan13867">Receptor</tspan><tspan x="418.86877" y="347.8187" id="tspan13869">Cells</tspan></text>
    <text x="594.13824" y="323.70444" style="font-size:16px;font-style:normal;font-variant:normal;font-weight:normal;font-stretch:normal;text-align:center;line-height:100%;writing-mode:lr-tb;text-anchor:middle;fill:#000000;fill-opacity:1;stroke:none;stroke-width:1px;stroke-linecap:butt;stroke-linejoin:miter;stroke-opacity:1;display:inline;font-family:Bitstream Vera Sans" id="text13871" xml:space="preserve"><tspan x="594.13824" y="323.70444" id="tspan13873">Frequency Spectrum</tspan><tspan x="594.13824" y="339.70444" id="tspan13875">of Hearing Response</tspan></text>
    <text x="790.56097" y="323.5726" style="font-size:16px;font-style:normal;font-variant:normal;font-weight:normal;font-stretch:normal;text-align:center;line-height:100%;writing-mode:lr-tb;text-anchor:middle;fill:#000000;fill-opacity:1;stroke:none;stroke-width:1px;stroke-linecap:butt;stroke-linejoin:miter;stroke-opacity:1;display:inline;font-family:Bitstream Vera Sans" id="text14911" xml:space="preserve"><tspan x="790.56097" y="323.5726" id="tspan14913">Nerve</tspan><tspan x="790.56097" y="339.5726" id="tspan14915">Impulse</tspan></text>
    <path d="M 356.03337,167.16596 L 370.01518,198.73778 M 441.64517,261.30642 C 409.41316,259.25998 381.59181,235.33766 381.17593,200.20065 M 444.19125,272.12723 C 406.63744,269.31987 371.91864,242.80662 370.35512,198.92761 M 441.64517,102.44963 C 409.41316,104.49607 381.59181,128.41839 381.17593,163.5554 M 444.19125,91.628821 C 406.63744,94.436181 371.91864,120.94943 370.35512,164.82844" style="fill:none;fill-opacity:1;fill-rule:evenodd;stroke:#00a600;stroke-width:5;stroke-linecap:round;stroke-linejoin:round;stroke-miterlimit:4;stroke-dashoffset:0;stroke-opacity:1;display:inline" id="path3209"/>
    <path d="M 442.85602,263.42542 C 409.41315,264.70884 377.05109,235.03495 378.75421,200.50337 M 445.09939,269.70552 C 407.54558,266.89816 374.34035,241.29305 372.77683,197.41404 M 442.85602,100.33063 C 409.41315,99.047211 377.05109,128.7211 378.75421,163.25268 M 445.09939,94.050531 C 407.54558,96.857891 374.34035,122.463 372.77683,166.34201" style="fill:none;fill-opacity:1;fill-rule:evenodd;stroke:#00a600;stroke-width:2.70000005;stroke-linecap:butt;stroke-linejoin:round;stroke-miterlimit:4;stroke-dasharray:2.7, 2.7;stroke-dashoffset:0;stroke-opacity:1;display:inline" id="path18460"/>
    <path d="M 144.82285,182.34488 L 180.22373,182.34488" style="opacity:1;fill:none;fill-opacity:1;fill-rule:evenodd;stroke:#000000;stroke-width:4.65644073;stroke-linecap:square;stroke-linejoin:round;marker-end:url(#Arrow2Mend);stroke-miterlimit:4;stroke-dasharray:none;stroke-dashoffset:0;stroke-opacity:1;display:inline" id="path20225"/>
    <path d="M 423.24325,182.34488 L 458.64413,182.34488" style="opacity:1;fill:none;fill-opacity:1;fill-rule:evenodd;stroke:#000000;stroke-width:4.65644073;stroke-linecap:square;stroke-linejoin:round;marker-end:url(#Arrow2Mend);stroke-miterlimit:4;stroke-dasharray:none;stroke-dashoffset:0;stroke-opacity:1;display:inline" id="path22857"/>
    <path d="M 629.75374,182.34488 L 665.15462,182.34488" style="opacity:1;fill:none;fill-opacity:1;fill-rule:evenodd;stroke:#000000;stroke-width:4.65644073;stroke-linecap:square;stroke-linejoin:round;marker-end:url(#Arrow2Mend);stroke-miterlimit:4;stroke-dasharray:none;stroke-dashoffset:0;stroke-opacity:1;display:inline" id="path22859"/>
  </g>
</svg>